<svg width="18" height="22" viewBox="0 0 18 22" fill="none" xmlns="http://www.w3.org/2000/svg">
<path d="M8.99988 0.00683594C7.35108 0.00704066 5.7394 0.545258 4.36878 1.55338C2.99816 2.5615 1.93021 3.99421 1.30008 5.6702C0.669946 7.3462 0.505952 9.19014 0.828851 10.9687C1.15175 12.7472 1.94703 14.3805 3.11404 15.6617L8.99988 21.994L14.8924 15.6543C16.0575 14.3723 16.8509 12.7391 17.1723 10.9611C17.4936 9.18308 17.3286 7.3402 16.6979 5.66541C16.0672 3.99063 14.9992 2.55914 13.629 1.55194C12.2588 0.544736 10.6479 0.00704176 8.99988 0.00683594ZM13.7207 14.3508L8.99988 19.4338L4.28571 14.3582C3.35368 13.3329 2.71887 12.0267 2.46152 10.6046C2.20416 9.18261 2.33581 7.70857 2.83982 6.36882C3.34383 5.02906 4.19758 3.88372 5.29318 3.07755C6.38878 2.27137 7.67705 1.84055 8.99517 1.83953C10.3133 1.8385 11.6021 2.26732 12.6987 3.07179C13.7954 3.87626 14.6506 5.02027 15.1563 6.35924C15.6621 7.69821 15.7956 9.17205 15.5401 10.5945C15.2846 12.0169 14.6514 13.3241 13.7207 14.3508ZM12.3482 6.80483L10.2649 5.054C9.90128 4.74986 9.45708 4.58518 9.00029 4.58518C8.54351 4.58518 8.09931 4.74986 7.73571 5.054L5.65238 6.80483C5.39842 7.01923 5.19253 7.29481 5.05052 7.6104C4.90852 7.92599 4.83417 8.2732 4.83321 8.62533V12.8338H13.1665V8.62533C13.1656 8.2733 13.0913 7.92619 12.9494 7.61062C12.8076 7.29506 12.6019 7.01941 12.3482 6.80483ZM11.4999 11.0004H9.83321V9.16708H8.16654V11.0004H6.49988V8.62533C6.49988 8.55418 6.51494 8.484 6.54387 8.42036C6.57279 8.35672 6.61479 8.30136 6.66654 8.25867L8.74988 6.50875C8.82259 6.4475 8.91162 6.41431 9.00321 6.41431C9.0948 6.41431 9.18383 6.4475 9.25654 6.50875L11.3399 8.25958C11.3916 8.30228 11.4336 8.35764 11.4626 8.42128C11.4915 8.48492 11.5065 8.5551 11.5065 8.62625L11.4999 11.0004Z" fill="#493232"/>
</svg>
