<svg width="21" height="21" viewBox="0 0 21 21" fill="none" xmlns="http://www.w3.org/2000/svg">
<path d="M17.6435 11.375H4.74163L3.91825 4.375H10.5V2.625H3.71175L3.675 2.317C3.59959 1.67877 3.29268 1.09038 2.81241 0.663341C2.33215 0.236297 1.71192 0.000273732 1.06925 0L0 0V1.75H1.06925C1.28357 1.75003 1.49042 1.82871 1.65058 1.97113C1.81073 2.11354 1.91305 2.30978 1.93813 2.52262L3.325 14.3071C3.40021 14.9455 3.70704 15.5341 4.18732 15.9613C4.6676 16.3886 5.28795 16.6247 5.93075 16.625H17.5V14.875H5.93075C5.7163 14.8749 5.50934 14.7961 5.34916 14.6535C5.18898 14.511 5.08675 14.3145 5.06188 14.1015L4.94725 13.125H19.1065L19.894 8.75H18.1169L17.6435 11.375Z" fill="#493232"/>
<path d="M6.125 21C7.0915 21 7.875 20.2165 7.875 19.25C7.875 18.2835 7.0915 17.5 6.125 17.5C5.1585 17.5 4.375 18.2835 4.375 19.25C4.375 20.2165 5.1585 21 6.125 21Z" fill="#493232"/>
<path d="M14.875 21C15.8415 21 16.625 20.2165 16.625 19.25C16.625 18.2835 15.8415 17.5 14.875 17.5C13.9085 17.5 13.125 18.2835 13.125 19.25C13.125 20.2165 13.9085 21 14.875 21Z" fill="#493232"/>
<path d="M14.9432 7.47391H14.972C15.1891 7.47463 15.4041 7.43222 15.6046 7.34916C15.8052 7.26609 15.9872 7.14402 16.1402 6.99004L20.7435 2.38666L19.5063 1.14941L14.9729 5.68716L13.0094 3.63966L11.7485 4.85241L13.7663 6.95241C13.9171 7.11431 14.0991 7.24398 14.3013 7.33361C14.5036 7.42324 14.7219 7.47097 14.9432 7.47391V7.47391Z" fill="#493232"/>
</svg>
