<svg width="21" height="21" viewBox="0 0 21 21" fill="none" xmlns="http://www.w3.org/2000/svg">
<path d="M16.625 0.875H4.375C3.2151 0.876389 2.10311 1.33777 1.28294 2.15794C0.462772 2.97811 0.00138938 4.09011 0 5.25L0 15.75C0.00138938 16.9099 0.462772 18.0219 1.28294 18.8421C2.10311 19.6622 3.2151 20.1236 4.375 20.125H16.625C17.7849 20.1236 18.8969 19.6622 19.7171 18.8421C20.5372 18.0219 20.9986 16.9099 21 15.75V5.25C20.9986 4.09011 20.5372 2.97811 19.7171 2.15794C18.8969 1.33777 17.7849 0.876389 16.625 0.875ZM4.375 2.625H16.625C17.3212 2.625 17.9889 2.90156 18.4811 3.39385C18.9734 3.88613 19.25 4.55381 19.25 5.25V6.125H1.75V5.25C1.75 4.55381 2.02656 3.88613 2.51884 3.39385C3.01113 2.90156 3.67881 2.625 4.375 2.625ZM16.625 18.375H4.375C3.67881 18.375 3.01113 18.0984 2.51884 17.6062C2.02656 17.1139 1.75 16.4462 1.75 15.75V7.875H19.25V15.75C19.25 16.4462 18.9734 17.1139 18.4811 17.6062C17.9889 18.0984 17.3212 18.375 16.625 18.375ZM16.625 11.375C16.625 11.6071 16.5328 11.8296 16.3687 11.9937C16.2046 12.1578 15.9821 12.25 15.75 12.25H5.25C5.01793 12.25 4.79537 12.1578 4.63128 11.9937C4.46719 11.8296 4.375 11.6071 4.375 11.375C4.375 11.1429 4.46719 10.9204 4.63128 10.7563C4.79537 10.5922 5.01793 10.5 5.25 10.5H15.75C15.9821 10.5 16.2046 10.5922 16.3687 10.7563C16.5328 10.9204 16.625 11.1429 16.625 11.375ZM13.125 14.875C13.125 15.1071 13.0328 15.3296 12.8687 15.4937C12.7046 15.6578 12.4821 15.75 12.25 15.75H5.25C5.01793 15.75 4.79537 15.6578 4.63128 15.4937C4.46719 15.3296 4.375 15.1071 4.375 14.875C4.375 14.6429 4.46719 14.4204 4.63128 14.2563C4.79537 14.0922 5.01793 14 5.25 14H12.25C12.4821 14 12.7046 14.0922 12.8687 14.2563C13.0328 14.4204 13.125 14.6429 13.125 14.875ZM2.625 4.375C2.625 4.20194 2.67632 4.03277 2.77246 3.88888C2.86861 3.74498 3.00527 3.63283 3.16515 3.56661C3.32504 3.50038 3.50097 3.48305 3.6707 3.51681C3.84044 3.55058 3.99635 3.63391 4.11872 3.75628C4.24109 3.87865 4.32442 4.03456 4.35819 4.2043C4.39195 4.37403 4.37462 4.54996 4.30839 4.70985C4.24217 4.86973 4.13002 5.00639 3.98612 5.10254C3.84223 5.19868 3.67306 5.25 3.5 5.25C3.26793 5.25 3.04538 5.15781 2.88128 4.99372C2.71719 4.82962 2.625 4.60707 2.625 4.375ZM5.25 4.375C5.25 4.20194 5.30132 4.03277 5.39746 3.88888C5.49361 3.74498 5.63027 3.63283 5.79015 3.56661C5.95004 3.50038 6.12597 3.48305 6.2957 3.51681C6.46544 3.55058 6.62135 3.63391 6.74372 3.75628C6.86609 3.87865 6.94942 4.03456 6.98319 4.2043C7.01695 4.37403 6.99962 4.54996 6.93339 4.70985C6.86717 4.86973 6.75501 5.00639 6.61112 5.10254C6.46723 5.19868 6.29806 5.25 6.125 5.25C5.89293 5.25 5.67037 5.15781 5.50628 4.99372C5.34219 4.82962 5.25 4.60707 5.25 4.375ZM7.875 4.375C7.875 4.20194 7.92632 4.03277 8.02246 3.88888C8.11861 3.74498 8.25526 3.63283 8.41515 3.56661C8.57504 3.50038 8.75097 3.48305 8.9207 3.51681C9.09044 3.55058 9.24634 3.63391 9.36872 3.75628C9.49109 3.87865 9.57442 4.03456 9.60818 4.2043C9.64195 4.37403 9.62462 4.54996 9.55839 4.70985C9.49217 4.86973 9.38001 5.00639 9.23612 5.10254C9.09223 5.19868 8.92306 5.25 8.75 5.25C8.51793 5.25 8.29537 5.15781 8.13128 4.99372C7.96719 4.82962 7.875 4.60707 7.875 4.375Z" fill="#493232"/>
</svg>
