<svg width="124" height="31" viewBox="0 0 124 31" fill="none" xmlns="http://www.w3.org/2000/svg">
<path d="M1.83 19.81C1.39 19.81 1.06 19.71 0.84 19.51C0.64 19.31 0.54 18.98 0.54 18.52C0.54 17.9 0.72 17.11 1.08 16.15C1.46 15.17 1.95 14.11 2.55 12.97C3.15 11.83 3.79 10.7 4.47 9.58C5.15 8.46 5.8 7.44 6.42 6.52C7.04 5.58 7.55 4.84 7.95 4.3C7.89 4.28 7.8 4.25 7.68 4.21C7.56 4.17 7.5 4.1 7.5 4C7.5 3.9 7.64 3.7 7.92 3.4C8.22 3.08 8.57 2.74 8.97 2.38C9.37 2 9.74 1.68 10.08 1.42C10.44 1.14 10.68 0.999999 10.8 0.999999C11.12 0.999999 11.41 1.13 11.67 1.39C11.95 1.65 12.09 1.95 12.09 2.29C12.09 2.37 12.07 2.45 12.03 2.53C11.97 2.83 11.84 3.37 11.64 4.15C11.46 4.93 11.26 5.85 11.04 6.91C10.84 7.95 10.66 9.04 10.5 10.18C10.36 11.32 10.29 12.39 10.29 13.39C10.29 14.55 10.43 15.53 10.71 16.33C11.01 17.13 11.54 17.53 12.3 17.53C12.98 17.53 13.66 17.21 14.34 16.57C15.04 15.93 15.71 15.1 16.35 14.08C17.01 13.04 17.6 11.94 18.12 10.78C18.3 10.38 18.52 9.84 18.78 9.16C19.04 8.46 19.29 7.71 19.53 6.91C19.79 6.09 20 5.3 20.16 4.54C20.34 3.76 20.43 3.1 20.43 2.56C20.43 1.78 20.22 1.39 19.8 1.39C19.64 1.39 19.47 1.43 19.29 1.51C19.13 1.57 18.95 1.6 18.75 1.6C18.69 1.6 18.61 1.59 18.51 1.57C18.43 1.53 18.39 1.47 18.39 1.39C18.39 1.19 18.51 1.01 18.75 0.849999C18.99 0.689999 19.26 0.559999 19.56 0.459999C19.88 0.359999 20.12 0.309999 20.28 0.309999C20.88 0.309999 21.31 0.519999 21.57 0.939998C21.85 1.34 21.99 1.89 21.99 2.59C21.99 3.41 21.83 4.38 21.51 5.5C21.19 6.62 20.75 7.79 20.19 9.01C19.63 10.23 18.99 11.43 18.27 12.61C17.55 13.77 16.79 14.83 15.99 15.79C15.21 16.73 14.42 17.48 13.62 18.04C12.84 18.6 12.1 18.88 11.4 18.88C10.72 18.88 10.18 18.68 9.78 18.28C9.4 17.86 9.13 17.31 8.97 16.63C8.81 15.93 8.73 15.15 8.73 14.29C8.73 13.31 8.81 12.29 8.97 11.23C9.13 10.15 9.32 9.12 9.54 8.14C9.76 7.14 9.98 6.27 10.2 5.53C10.42 4.77 10.59 4.22 10.71 3.88C10.21 4.44 9.57 5.2 8.79 6.16C8.01 7.1 7.19 8.14 6.33 9.28C5.49 10.42 4.69 11.58 3.93 12.76C3.17 13.94 2.55 15.06 2.07 16.12C1.61 17.16 1.38 18.06 1.38 18.82C1.38 18.92 1.39 19.03 1.41 19.15C1.45 19.27 1.54 19.33 1.68 19.33C2.04 19.33 2.22 19.41 2.22 19.57C2.22 19.73 2.09 19.81 1.83 19.81ZM25.7438 19.27C25.5638 19.27 25.3538 19.19 25.1138 19.03C24.8938 18.87 24.7038 18.69 24.5438 18.49C24.3838 18.27 24.3038 18.07 24.3038 17.89C24.3038 17.59 24.4138 17.19 24.6338 16.69C24.8538 16.17 25.1038 15.66 25.3838 15.16C25.6838 14.66 25.9138 14.29 26.0738 14.05C25.7938 14.29 25.4338 14.68 24.9938 15.22C24.5738 15.74 24.1138 16.3 23.6138 16.9C23.1338 17.48 22.6638 17.98 22.2038 18.4C21.7638 18.82 21.3838 19.03 21.0638 19.03C20.6238 19.03 20.2638 18.88 19.9838 18.58C19.7238 18.26 19.5938 17.88 19.5938 17.44C19.5938 16.84 19.7638 16.2 20.1038 15.52C20.4438 14.82 20.8838 14.15 21.4238 13.51C21.9838 12.85 22.5838 12.25 23.2238 11.71C23.8838 11.17 24.5238 10.74 25.1438 10.42C25.7838 10.1 26.3538 9.94 26.8538 9.94C27.3938 9.94 27.8338 10.07 28.1738 10.33C28.5138 10.57 28.6838 10.94 28.6838 11.44C28.6838 11.52 28.6638 11.67 28.6238 11.89C28.6038 12.11 28.5338 12.22 28.4138 12.22C28.3538 12.22 28.2538 12.13 28.1138 11.95C27.9938 11.77 27.8238 11.59 27.6038 11.41C27.3838 11.23 27.1038 11.14 26.7637 11.14C26.2038 11.14 25.6138 11.35 24.9938 11.77C24.3938 12.17 23.8138 12.69 23.2537 13.33C22.6938 13.95 22.2038 14.59 21.7838 15.25C21.3638 15.91 21.0438 16.48 20.8237 16.96C20.7638 17.1 20.7038 17.25 20.6438 17.41C20.6038 17.57 20.5838 17.73 20.5838 17.89C20.5838 18.07 20.6338 18.16 20.7338 18.16C20.8338 18.16 21.0438 18.05 21.3638 17.83C21.7038 17.61 21.9438 17.45 22.0838 17.35C22.7838 16.85 23.4438 16.28 24.0638 15.64C24.7038 15 25.2738 14.34 25.7738 13.66C25.9338 13.44 26.0838 13.22 26.2238 13C26.3638 12.78 26.5038 12.57 26.6438 12.37C26.7438 12.23 26.8438 12.16 26.9438 12.16C27.1638 12.16 27.3738 12.31 27.5738 12.61C27.7938 12.91 27.9038 13.17 27.9038 13.39C27.9038 13.49 27.8838 13.55 27.8438 13.57C27.8238 13.59 27.7638 13.65 27.6637 13.75C27.3638 14.05 27.0638 14.47 26.7637 15.01C26.4837 15.55 26.2338 16.1 26.0138 16.66C25.8138 17.2 25.6638 17.66 25.5638 18.04C25.5438 18.1 25.5238 18.18 25.5038 18.28C25.5038 18.36 25.5538 18.39 25.6538 18.37C25.8538 18.31 26.1738 18.09 26.6138 17.71C27.0738 17.31 27.5638 16.86 28.0838 16.36C28.6238 15.84 29.1038 15.36 29.5238 14.92C29.9638 14.48 30.2538 14.17 30.3938 13.99C30.4338 13.95 30.4738 13.91 30.5138 13.87C30.5738 13.81 30.6338 13.78 30.6938 13.78C30.8338 13.78 30.9038 13.85 30.9038 13.99C30.9038 14.07 30.7438 14.31 30.4238 14.71C30.1038 15.09 29.7038 15.54 29.2238 16.06C28.7438 16.56 28.2538 17.06 27.7538 17.56C27.2538 18.04 26.8138 18.45 26.4338 18.79C26.0738 19.11 25.8438 19.27 25.7438 19.27ZM35.3273 20.26C35.0873 20.26 34.8373 20.2 34.5773 20.08C34.3373 19.98 34.0973 19.84 33.8573 19.66C33.5973 19.44 33.3473 19.13 33.1073 18.73C32.8673 18.33 32.6673 17.91 32.5073 17.47L30.1973 19.99C30.1373 20.05 30.0973 20.08 30.0773 20.08C29.9973 20.08 29.9573 20.02 29.9573 19.9C29.9573 19.72 30.0173 19.57 30.1373 19.45L32.3573 16.93C32.2973 16.69 32.2673 16.46 32.2673 16.24C32.1273 16.14 31.9373 16.02 31.6973 15.88C31.4773 15.72 31.3673 15.46 31.3673 15.1C31.3673 14.68 31.4973 14.27 31.7573 13.87C32.0173 13.47 32.2373 13.27 32.4173 13.27C32.5573 13.27 32.6273 13.39 32.6273 13.63C32.6273 13.71 32.6273 13.92 32.6273 14.26C32.6473 14.6 32.6673 14.95 32.6873 15.31C32.7073 15.65 32.7273 15.88 32.7473 16C32.8673 16.08 32.9673 16.13 33.0473 16.15C33.8273 15.25 34.6473 14.32 35.5073 13.36C36.3673 12.4 37.1373 11.58 37.8173 10.9C38.1573 10.38 38.5273 9.94 38.9273 9.58C39.3473 9.22 39.8273 9.04 40.3673 9.04C40.7473 9.04 41.0173 9.11 41.1773 9.25C41.3373 9.39 41.4173 9.55 41.4173 9.73C41.4173 9.91 41.3373 10.08 41.1773 10.24C41.0373 10.38 40.8273 10.45 40.5473 10.45C40.1073 10.43 39.7273 10.45 39.4073 10.51C39.0873 10.55 38.8573 10.69 38.7173 10.93C38.5773 11.19 38.4173 11.62 38.2373 12.22C38.0573 12.82 37.8773 13.5 37.6973 14.26C37.5373 15.02 37.3973 15.76 37.2773 16.48C37.6973 16.4 38.0973 16.3 38.4773 16.18C38.8773 16.04 39.3073 15.81 39.7673 15.49C40.2273 15.17 40.7573 14.7 41.3573 14.08C41.4573 13.96 41.5573 13.9 41.6573 13.9C41.7173 13.9 41.7473 13.94 41.7473 14.02C41.7473 14.06 41.7273 14.13 41.6873 14.23C41.6473 14.33 41.5673 14.46 41.4473 14.62C41.2073 14.94 40.9073 15.26 40.5473 15.58C40.2073 15.88 39.9073 16.11 39.6473 16.27C39.1073 16.59 38.5973 16.79 38.1173 16.87C37.6373 16.93 37.3273 16.97 37.1873 16.99C37.1073 17.41 37.0373 17.76 36.9773 18.04C36.9173 18.3 36.8773 18.49 36.8573 18.61C36.7573 19.19 36.5573 19.61 36.2573 19.87C35.9773 20.13 35.6673 20.26 35.3273 20.26ZM36.0173 16.48C36.1173 16.02 36.2473 15.41 36.4073 14.65C36.5873 13.89 36.8273 13.13 37.1273 12.37C36.6073 12.95 36.0273 13.58 35.3873 14.26C34.7673 14.94 34.1573 15.62 33.5573 16.3C33.9373 16.38 34.3473 16.44 34.7873 16.48C35.2273 16.5 35.6373 16.5 36.0173 16.48ZM34.8773 18.82C35.0373 18.82 35.1973 18.71 35.3573 18.49C35.5373 18.25 35.7073 17.81 35.8673 17.17C35.8673 17.11 35.8773 17.07 35.8973 17.05C35.4173 17.03 34.9473 17 34.4873 16.96C34.0473 16.9 33.6273 16.8 33.2273 16.66L32.9873 16.93C33.1473 17.25 33.3373 17.58 33.5573 17.92C33.7773 18.24 34.0273 18.47 34.3073 18.61C34.4073 18.67 34.5073 18.72 34.6073 18.76C34.7073 18.8 34.7973 18.82 34.8773 18.82ZM44.4881 19.78C44.1281 19.78 43.8181 19.66 43.5581 19.42C43.3181 19.18 43.1281 18.89 42.9881 18.55C42.8681 18.19 42.8081 17.85 42.8081 17.53C42.8081 17.21 42.8481 16.9 42.9281 16.6C43.0081 16.28 43.1181 15.97 43.2581 15.67C43.5181 15.09 43.8281 14.45 44.1881 13.75C44.5681 13.03 44.9681 12.3 45.3881 11.56C45.8281 10.8 46.2681 10.11 46.7081 9.49C46.3681 9.63 45.9681 9.79 45.5081 9.97C45.0681 10.13 44.7781 10.21 44.6381 10.21C44.5581 10.19 44.4981 10.13 44.4581 10.03C44.4381 9.93 44.4281 9.83 44.4281 9.73C44.4281 9.31 44.6281 9.03 45.0281 8.89C45.6481 8.69 46.4781 8.51 47.5181 8.35C48.2781 7.35 49.0981 6.35 49.9781 5.35C50.8781 4.35 51.7881 3.56 52.7081 2.98C52.8881 2.86 53.0881 2.92 53.3081 3.16C53.5281 3.38 53.6481 3.61 53.6681 3.85C53.6681 4.07 53.5881 4.22 53.4281 4.3C52.6281 4.8 51.8881 5.37 51.2081 6.01C50.5281 6.63 49.8281 7.34 49.1081 8.14C49.5081 8.08 49.8581 8.04 50.1581 8.02C50.4581 8 50.6481 7.99 50.7281 7.99C50.7881 7.99 50.8881 7.99 51.0281 7.99C51.1681 7.97 51.3181 7.96 51.4781 7.96C51.7181 7.96 51.9381 7.98 52.1381 8.02C52.3581 8.06 52.4681 8.13 52.4681 8.23C52.4681 8.31 52.3781 8.38 52.1981 8.44C52.0381 8.48 51.8581 8.51 51.6581 8.53C51.4581 8.53 51.3081 8.54 51.2081 8.56C50.6081 8.64 50.0681 8.72 49.5881 8.8C49.1281 8.88 48.6981 8.98 48.2981 9.1C47.8381 9.66 47.4781 10.13 47.2181 10.51C46.9781 10.89 46.7681 11.24 46.5881 11.56C46.4281 11.86 46.2281 12.2 45.9881 12.58C45.4681 13.58 45.0181 14.6 44.6381 15.64C44.2781 16.68 44.0981 17.52 44.0981 18.16C44.0981 18.26 44.1081 18.34 44.1281 18.4C44.1481 18.46 44.2081 18.49 44.3081 18.49C44.4281 18.49 44.5381 18.46 44.6381 18.4C44.7581 18.32 44.8581 18.24 44.9381 18.16C45.2181 17.94 45.4781 17.69 45.7181 17.41C45.9781 17.11 46.2281 16.83 46.4681 16.57C46.9081 16.09 47.3581 15.62 47.8181 15.16C48.2781 14.7 48.7281 14.24 49.1681 13.78C49.2081 13.74 49.2481 13.71 49.2881 13.69C49.3281 13.65 49.3681 13.63 49.4081 13.63C49.5481 13.63 49.6181 13.71 49.6181 13.87C49.6181 13.93 49.5781 14.02 49.4981 14.14C49.2581 14.46 48.9981 14.78 48.7181 15.1C48.4381 15.4 48.1681 15.71 47.9081 16.03C47.3881 16.65 46.8681 17.26 46.3481 17.86C45.8481 18.46 45.3481 19.08 44.8481 19.72C44.7881 19.74 44.7281 19.75 44.6681 19.75C44.6081 19.77 44.5481 19.78 44.4881 19.78ZM45.3633 30.49C44.4433 30.49 43.9833 30.03 43.9833 29.11C43.9833 29.01 43.9933 28.91 44.0133 28.81C44.0133 28.71 44.0233 28.61 44.0433 28.51C44.2033 27.79 44.5433 27.1 45.0633 26.44C45.5833 25.78 46.1933 25.16 46.8933 24.58C47.5933 24.02 48.3033 23.49 49.0233 22.99C49.7633 22.51 50.4233 22.09 51.0033 21.73C51.3433 21.51 51.7733 21.24 52.2933 20.92C52.8333 20.6 53.4033 20.25 54.0033 19.87C54.6033 19.51 55.1733 19.17 55.7133 18.85C55.9333 18.29 56.0833 17.67 56.1633 16.99C56.2633 16.29 56.3133 15.64 56.3133 15.04V14.8C56.0733 15.16 55.7233 15.58 55.2633 16.06C54.8033 16.54 54.2833 17.01 53.7033 17.47C53.1233 17.91 52.5533 18.28 51.9933 18.58C51.4333 18.88 50.9233 19.03 50.4633 19.03C50.1433 19.03 49.9233 18.93 49.8033 18.73C49.7033 18.53 49.6533 18.3 49.6533 18.04C49.6533 17.34 49.8033 16.62 50.1033 15.88C50.4033 15.14 50.7433 14.46 51.1233 13.84C51.5033 13.2 51.8433 12.67 52.1433 12.25C52.4433 11.81 52.5933 11.56 52.5933 11.5C52.5933 11.48 52.5733 11.47 52.5333 11.47C52.4533 11.47 52.3633 11.47 52.2633 11.47C52.1833 11.47 52.1733 11.41 52.2333 11.29C52.5133 10.95 52.8633 10.65 53.2833 10.39C53.7033 10.13 54.1033 10 54.4833 10C54.6233 10 54.7833 10.06 54.9633 10.18C55.1633 10.28 55.2633 10.41 55.2633 10.57C55.2633 10.67 55.2033 10.78 55.0833 10.9C54.9433 11.04 54.7733 11.2 54.5733 11.38C54.3933 11.56 54.1433 11.84 53.8233 12.22C53.6433 12.42 53.3933 12.75 53.0733 13.21C52.7533 13.65 52.4233 14.16 52.0833 14.74C51.7433 15.3 51.4533 15.86 51.2133 16.42C50.9933 16.96 50.8833 17.43 50.8833 17.83C50.8833 17.89 50.8833 17.96 50.8833 18.04C50.9033 18.1 50.9533 18.16 51.0333 18.22C51.3133 18.24 51.6633 18.12 52.0833 17.86C52.5033 17.58 52.9433 17.23 53.4033 16.81C53.8833 16.37 54.3333 15.91 54.7533 15.43C55.1933 14.93 55.5733 14.47 55.8933 14.05C56.2333 13.61 56.4733 13.26 56.6133 13C56.8333 12.6 57.1633 12.4 57.6033 12.4C57.9233 12.4 58.1033 12.47 58.1433 12.61C58.2033 12.75 58.2333 12.94 58.2333 13.18C58.2333 13.96 58.1833 14.65 58.0833 15.25C58.0033 15.83 57.8433 16.49 57.6033 17.23C58.8833 16.13 60.1033 14.97 61.2633 13.75C61.2833 13.71 61.3233 13.66 61.3833 13.6C61.4633 13.54 61.5233 13.51 61.5633 13.51C61.6833 13.51 61.7433 13.57 61.7433 13.69C61.7433 13.85 61.6833 14.01 61.5633 14.17C61.3833 14.39 61.1833 14.61 60.9633 14.83C60.7633 15.05 60.5633 15.27 60.3633 15.49C59.8833 16.01 59.3933 16.53 58.8933 17.05C58.3933 17.55 57.8633 18.03 57.3033 18.49C56.3833 20.91 55.1733 23.03 53.6733 24.85C52.1933 26.69 50.3233 28.26 48.0633 29.56C47.6833 29.78 47.2533 29.99 46.7733 30.19C46.2933 30.39 45.8233 30.49 45.3633 30.49ZM46.0533 29.74C46.5933 29.74 47.1833 29.54 47.8233 29.14C48.4433 28.76 49.0633 28.28 49.6833 27.7C50.3033 27.12 50.8633 26.54 51.3633 25.96C51.8833 25.4 52.2933 24.93 52.5933 24.55C52.9333 24.09 53.2633 23.63 53.5833 23.17C53.9033 22.73 54.2033 22.27 54.4833 21.79C54.9033 21.09 55.2533 20.41 55.5333 19.75C55.5533 19.69 55.5333 19.65 55.4733 19.63C55.4333 19.63 55.4133 19.63 55.4133 19.63C54.7933 20.07 54.1633 20.5 53.5233 20.92C52.9033 21.36 52.2733 21.79 51.6333 22.21C51.3133 22.41 50.8833 22.7 50.3433 23.08C49.8033 23.48 49.2233 23.92 48.6033 24.4C47.9833 24.9 47.3933 25.41 46.8333 25.93C46.2733 26.47 45.8133 26.99 45.4533 27.49C45.0933 28.01 44.9133 28.47 44.9133 28.87C44.9133 29.19 45.0433 29.41 45.3033 29.53C45.5433 29.67 45.7933 29.74 46.0533 29.74ZM76.5914 20.02C76.4514 20.02 76.3014 20.02 76.1414 20.02C76.0014 20.02 75.8814 20.01 75.7814 19.99C75.6014 19.97 75.3014 19.9 74.8814 19.78C74.4614 19.66 74.0214 19.5 73.5614 19.3C73.1214 19.12 72.7414 18.91 72.4214 18.67C72.1214 18.43 71.9714 18.17 71.9714 17.89C71.9714 17.77 72.0414 17.71 72.1814 17.71C72.5214 17.71 72.8614 17.8 73.2014 17.98C73.5614 18.16 73.9314 18.27 74.3114 18.31C74.4714 18.33 74.6414 18.35 74.8214 18.37C75.0214 18.37 75.2414 18.37 75.4814 18.37C75.9814 18.37 76.5014 18.33 77.0414 18.25C77.5814 18.15 78.0414 17.98 78.4214 17.74C78.8014 17.5 79.0014 17.16 79.0214 16.72C79.0214 16.44 78.8414 16.09 78.4814 15.67C78.1214 15.23 77.6614 14.73 77.1014 14.17C76.5614 13.59 76.0214 12.96 75.4814 12.28C74.9414 11.58 74.4814 10.83 74.1014 10.03C73.7414 9.23 73.5614 8.4 73.5614 7.54C73.5614 6.46 73.8214 5.52 74.3414 4.72C74.8614 3.92 75.5414 3.27 76.3814 2.77C77.2214 2.25 78.1414 1.87 79.1414 1.63C80.1414 1.37 81.1214 1.24 82.0814 1.24C82.5614 1.24 83.0114 1.27 83.4314 1.33C83.9714 1.39 84.5514 1.53 85.1714 1.75C85.8114 1.95 86.3614 2.27 86.8214 2.71C87.2814 3.13 87.5114 3.69 87.5114 4.39C87.5114 5.13 87.2714 5.84 86.7914 6.52C86.3314 7.2 85.7614 7.8 85.0814 8.32C84.4214 8.82 83.7714 9.2 83.1314 9.46C83.0114 9.52 82.8914 9.55 82.7714 9.55C82.6714 9.51 82.6214 9.46 82.6214 9.4C82.7214 9.18 82.9614 8.88 83.3414 8.5C83.7414 8.1 84.1714 7.66 84.6314 7.18C85.1114 6.7 85.5214 6.19 85.8614 5.65C86.2214 5.09 86.4014 4.54 86.4014 4C86.4014 3.64 86.2714 3.37 86.0114 3.19C85.7514 2.99 85.4414 2.84 85.0814 2.74C84.7414 2.64 84.4414 2.57 84.1814 2.53C84.0614 2.51 83.9414 2.5 83.8214 2.5C83.7014 2.5 83.5714 2.5 83.4314 2.5C82.5314 2.5 81.5614 2.66 80.5214 2.98C79.5014 3.28 78.5314 3.71 77.6114 4.27C76.6914 4.83 75.9414 5.5 75.3614 6.28C74.7814 7.04 74.4914 7.89 74.4914 8.83C74.4914 9.39 74.6914 9.99 75.0914 10.63C75.4914 11.25 75.9914 11.89 76.5914 12.55C77.1914 13.21 77.7914 13.87 78.3914 14.53C78.9914 15.17 79.4914 15.8 79.8914 16.42C80.2914 17.02 80.4914 17.58 80.4914 18.1C80.4914 18.6 80.2714 18.99 79.8314 19.27C79.4114 19.55 78.8914 19.74 78.2714 19.84C77.6714 19.96 77.1114 20.02 76.5914 20.02ZM83.7687 28.72C82.9887 28.72 82.4587 28.49 82.1787 28.03C81.8787 27.57 81.7287 27.01 81.7287 26.35C81.7287 25.83 81.7887 25.29 81.9087 24.73C82.0287 24.19 82.1587 23.7 82.2987 23.26C82.9987 20.94 83.9487 18.76 85.1487 16.72C86.3687 14.66 87.8087 12.75 89.4687 10.99C89.3687 10.85 89.2187 10.7 89.0187 10.54C88.8387 10.38 88.7487 10.22 88.7487 10.06C88.7487 9.86 88.8087 9.73 88.9287 9.67C89.0487 9.59 89.1887 9.55 89.3487 9.55C89.3887 9.55 89.5487 9.57 89.8287 9.61C90.1287 9.63 90.3987 9.73 90.6387 9.91L92.2287 8.26C92.3487 8.14 92.4587 8.02 92.5587 7.9C92.6587 7.76 92.7687 7.64 92.8887 7.54C92.9887 7.44 93.0887 7.36 93.1887 7.3C93.3087 7.24 93.4387 7.21 93.5787 7.21C93.7987 7.21 93.9587 7.29 94.0587 7.45C94.1587 7.59 94.2087 7.75 94.2087 7.93C94.2087 8.13 94.1587 8.31 94.0587 8.47C93.9587 8.61 93.8287 8.76 93.6687 8.92C93.3487 9.24 92.9887 9.57 92.5887 9.91C92.1887 10.25 91.8887 10.55 91.6887 10.81C92.0087 11.11 92.2687 11.4 92.4687 11.68C92.6687 11.94 92.8387 12.27 92.9787 12.67C93.0387 12.87 93.0887 13.07 93.1287 13.27C93.1687 13.47 93.1887 13.68 93.1887 13.9C93.1887 14.66 92.9787 15.37 92.5587 16.03C92.1587 16.69 91.6187 17.27 90.9387 17.77C90.2587 18.25 89.5187 18.63 88.7187 18.91C87.9187 19.19 87.1387 19.33 86.3787 19.33C86.1787 19.33 85.9687 19.29 85.7487 19.21C85.5487 19.15 85.3687 19.05 85.2087 18.91C84.9487 19.35 84.6887 19.91 84.4287 20.59C84.1687 21.29 83.9287 22.01 83.7087 22.75C83.4887 23.51 83.3187 24.22 83.1987 24.88C83.0587 25.56 82.9887 26.1 82.9887 26.5C82.9887 26.92 83.0587 27.25 83.1987 27.49C83.3387 27.75 83.5787 27.88 83.9187 27.88C83.9787 27.88 84.1387 27.87 84.3987 27.85C84.6787 27.85 84.9287 27.79 85.1487 27.67C85.1887 27.95 85.0687 28.19 84.7887 28.39C84.5087 28.61 84.1687 28.72 83.7687 28.72ZM87.3087 18.64C87.4087 18.64 87.4987 18.64 87.5787 18.64C87.6787 18.62 87.7687 18.6 87.8487 18.58C88.5287 18.46 89.1687 18.22 89.7687 17.86C90.3687 17.5 90.8487 17.03 91.2087 16.45C91.5887 15.85 91.7787 15.17 91.7787 14.41C91.7787 13.95 91.6687 13.46 91.4487 12.94C91.2487 12.4 90.9187 11.99 90.4587 11.71C89.7187 12.47 88.8887 13.41 87.9687 14.53C87.0687 15.63 86.2587 16.83 85.5387 18.13C85.6387 18.03 85.7287 17.98 85.8087 17.98C85.9087 17.98 85.9987 18.02 86.0787 18.1C86.1787 18.18 86.2387 18.24 86.2587 18.28C86.4987 18.52 86.8487 18.64 87.3087 18.64ZM100.814 19.27C100.634 19.27 100.424 19.19 100.184 19.03C99.9641 18.87 99.7741 18.69 99.6141 18.49C99.4541 18.27 99.3741 18.07 99.3741 17.89C99.3741 17.59 99.4841 17.19 99.7041 16.69C99.9241 16.17 100.174 15.66 100.454 15.16C100.754 14.66 100.984 14.29 101.144 14.05C100.864 14.29 100.504 14.68 100.064 15.22C99.6441 15.74 99.1841 16.3 98.6841 16.9C98.2041 17.48 97.7341 17.98 97.2741 18.4C96.8341 18.82 96.4541 19.03 96.1341 19.03C95.6941 19.03 95.3341 18.88 95.0541 18.58C94.7941 18.26 94.6641 17.88 94.6641 17.44C94.6641 16.84 94.8341 16.2 95.1741 15.52C95.5141 14.82 95.9541 14.15 96.4941 13.51C97.0541 12.85 97.6541 12.25 98.2941 11.71C98.9541 11.17 99.5941 10.74 100.214 10.42C100.854 10.1 101.424 9.94 101.924 9.94C102.464 9.94 102.904 10.07 103.244 10.33C103.584 10.57 103.754 10.94 103.754 11.44C103.754 11.52 103.734 11.67 103.694 11.89C103.674 12.11 103.604 12.22 103.484 12.22C103.424 12.22 103.324 12.13 103.184 11.95C103.064 11.77 102.894 11.59 102.674 11.41C102.454 11.23 102.174 11.14 101.834 11.14C101.274 11.14 100.684 11.35 100.064 11.77C99.4641 12.17 98.8841 12.69 98.3241 13.33C97.7641 13.95 97.2741 14.59 96.8541 15.25C96.4341 15.91 96.1141 16.48 95.8941 16.96C95.8341 17.1 95.7741 17.25 95.7141 17.41C95.6741 17.57 95.6541 17.73 95.6541 17.89C95.6541 18.07 95.7041 18.16 95.8041 18.16C95.9041 18.16 96.1141 18.05 96.4341 17.83C96.7741 17.61 97.0141 17.45 97.1541 17.35C97.8541 16.85 98.5141 16.28 99.1341 15.64C99.7741 15 100.344 14.34 100.844 13.66C101.004 13.44 101.154 13.22 101.294 13C101.434 12.78 101.574 12.57 101.714 12.37C101.814 12.23 101.914 12.16 102.014 12.16C102.234 12.16 102.444 12.31 102.644 12.61C102.864 12.91 102.974 13.17 102.974 13.39C102.974 13.49 102.954 13.55 102.914 13.57C102.894 13.59 102.834 13.65 102.734 13.75C102.434 14.05 102.134 14.47 101.834 15.01C101.554 15.55 101.304 16.1 101.084 16.66C100.884 17.2 100.734 17.66 100.634 18.04C100.614 18.1 100.594 18.18 100.574 18.28C100.574 18.36 100.624 18.39 100.724 18.37C100.924 18.31 101.244 18.09 101.684 17.71C102.144 17.31 102.634 16.86 103.154 16.36C103.694 15.84 104.174 15.36 104.594 14.92C105.034 14.48 105.324 14.17 105.464 13.99C105.504 13.95 105.544 13.91 105.584 13.87C105.644 13.81 105.704 13.78 105.764 13.78C105.904 13.78 105.974 13.85 105.974 13.99C105.974 14.07 105.814 14.31 105.494 14.71C105.174 15.09 104.774 15.54 104.294 16.06C103.814 16.56 103.324 17.06 102.824 17.56C102.324 18.04 101.884 18.45 101.504 18.79C101.144 19.11 100.914 19.27 100.814 19.27ZM107.818 19.42C107.158 19.42 106.628 19.2 106.228 18.76C105.848 18.32 105.658 17.76 105.658 17.08C105.658 16.44 105.858 15.74 106.258 14.98C106.678 14.22 107.208 13.48 107.848 12.76C108.508 12.04 109.188 11.41 109.888 10.87C110.588 10.33 111.218 9.96 111.778 9.76C112.038 9.66 112.278 9.61 112.498 9.61C112.758 9.61 112.928 9.67 113.008 9.79C113.088 9.91 113.148 10.04 113.188 10.18C113.248 10.32 113.338 10.43 113.458 10.51C113.678 10.63 113.788 10.84 113.788 11.14C113.788 11.36 113.728 11.63 113.608 11.95C113.508 12.25 113.358 12.52 113.158 12.76C112.958 12.98 112.718 13.09 112.438 13.09C112.178 13.09 112.048 12.98 112.048 12.76C112.048 12.62 112.118 12.47 112.258 12.31C112.398 12.15 112.538 11.98 112.678 11.8C112.818 11.6 112.888 11.41 112.888 11.23C112.888 11.05 112.798 10.96 112.618 10.96C112.278 10.96 111.858 11.14 111.358 11.5C110.858 11.84 110.348 12.29 109.828 12.85C109.308 13.41 108.818 14.01 108.358 14.65C107.898 15.27 107.528 15.86 107.248 16.42C106.968 16.98 106.828 17.44 106.828 17.8C106.828 18.06 106.888 18.28 107.008 18.46C107.148 18.62 107.348 18.7 107.608 18.7C108.028 18.7 108.498 18.58 109.018 18.34C109.538 18.1 110.028 17.81 110.488 17.47C110.968 17.13 111.358 16.83 111.658 16.57C112.218 16.07 112.758 15.57 113.278 15.07C113.818 14.55 114.348 14.03 114.868 13.51C114.928 13.45 114.998 13.42 115.078 13.42C115.258 13.42 115.348 13.5 115.348 13.66C115.348 13.74 115.188 13.96 114.868 14.32C114.548 14.66 114.168 15.05 113.728 15.49C113.288 15.93 112.878 16.33 112.498 16.69C112.118 17.05 111.868 17.28 111.748 17.38C111.428 17.66 111.038 17.96 110.578 18.28C110.138 18.6 109.678 18.87 109.198 19.09C108.718 19.31 108.258 19.42 107.818 19.42ZM116.758 18.73C115.558 18.73 114.958 18.14 114.958 16.96C114.958 16.5 115.078 15.97 115.318 15.37C115.578 14.75 115.918 14.13 116.338 13.51C116.758 12.89 117.228 12.32 117.748 11.8C118.268 11.26 118.798 10.83 119.338 10.51C119.898 10.17 120.418 10 120.898 10C121.058 10 121.168 10.04 121.228 10.12C121.308 10.18 121.368 10.29 121.408 10.45C121.448 10.53 121.478 10.62 121.498 10.72C121.518 10.82 121.548 10.92 121.588 11.02C121.668 11.16 121.738 11.3 121.798 11.44C121.858 11.58 121.888 11.73 121.888 11.89C121.888 12.09 121.838 12.27 121.738 12.43C121.638 12.57 121.518 12.7 121.378 12.82C121.178 13 120.878 13.23 120.478 13.51C120.078 13.77 119.638 14.04 119.158 14.32C118.698 14.58 118.248 14.81 117.808 15.01C117.388 15.21 117.048 15.33 116.788 15.37C116.608 15.65 116.418 16 116.218 16.42C116.038 16.82 115.948 17.19 115.948 17.53C115.948 17.71 115.988 17.87 116.068 18.01C116.168 18.15 116.318 18.22 116.518 18.22C116.838 18.22 117.258 18.07 117.778 17.77C118.318 17.45 118.878 17.07 119.458 16.63C120.038 16.17 120.568 15.73 121.048 15.31C121.548 14.87 121.918 14.53 122.158 14.29L123.118 13.27C123.238 13.15 123.368 13.09 123.508 13.09C123.628 13.09 123.688 13.14 123.688 13.24C123.688 13.36 123.518 13.61 123.178 13.99C122.838 14.35 122.428 14.76 121.948 15.22C121.488 15.66 121.058 16.07 120.658 16.45C120.258 16.81 119.998 17.04 119.878 17.14C119.458 17.5 118.978 17.86 118.438 18.22C117.898 18.56 117.338 18.73 116.758 18.73ZM117.298 14.59C117.498 14.47 117.798 14.28 118.198 14.02C118.618 13.76 119.048 13.47 119.488 13.15C119.928 12.83 120.298 12.51 120.598 12.19C120.918 11.87 121.078 11.59 121.078 11.35C121.078 11.29 121.068 11.24 121.048 11.2C121.028 11.18 120.988 11.17 120.928 11.17C120.668 11.17 120.358 11.31 119.998 11.59C119.638 11.87 119.278 12.21 118.918 12.61C118.558 12.99 118.228 13.37 117.928 13.75C117.648 14.11 117.438 14.39 117.298 14.59Z" fill="black"/>
</svg>
